# xmcd
#
# Track frame offsets:
#	150
#	14106
#	27150
#	56828
#	66321
#	80967
#	93415
#	113306
#	133970
#	143536
#	158834
#	175270
#	182170
#	198452
#	221825
#	237002
#	248786
#	271142
#	289468
#	309507
#	323852
#
# Disc length: 4418 seconds
#
# Revision: 1
# Processed by: cddbd v1.5.2PL0 Copyright (c) Steve Scherf et al.
# Submitted via: audiograbber 1.83.01
#
DISCID=3d114015
DTITLE=Franz Schubert - Hyperion Ed. CD21 (1818-19)
DYEAR=1819
DGENRE=Lied
TTITLE0=Sonett I D628 (Petrarch tr. Schlegel) [M. Goerne]
TTITLE1=Sonett II D629 (Petrarch tr. Schlegel) [M. Goerne]
TTITLE2=Sonett III D630 (Petrarch tr. Gries) [M. Goerne]
TTITLE3=Blanka D613 (Schlegel) [A. Auger]
TTITLE4=Vom mitleiden Mariä D632 (Schlegel) [A. Auger]
TTITLE5=Hoffnung D637 (Schiller [M. Lipovsek]
TTITLE6=Widerschein D639 (Schlechta) [St. Varcoe]
TTITLE7=Abend D645 ed.Brown (Tieck) [M. Hill]
TTITLE8=Die Berge D634 (Schlegel) [M. Goerne]
TTITLE9=Die Gebüsche D646 (Schlegel) [M. Goerne]
TTITLE10=Der Wanderer D649 (Schlegel) [M. Goerne]
TTITLE11=Der Schmetterling D633 (Schlegel) [M. Goerne]
TTITLE12=Schäfers Klagelied D121, 2. Vers. (Goethe) [J. M. Ainsley]
TTITLE13=Abendbilder D650 (Silbert) [M. Lipovsek]
TTITLE14=Himmelfunken D651 (Silbert) [M. Lipovsek]
TTITLE15=Das Mädchen D652 (Schlegel) [Chr. Schäfer]
TTITLE16=Bertas Lied in der Nacht D653 (Grillparzer) [S. Walker]
TTITLE17=An die Freunde  D654 (Mayrhofer) [A. Murray]
TTITLE18=Der Jüngling am Bache D639 (Schiller) [Th. Allen]
TTITLE19=Nur wer die Sehnsucht kennt "Sehnsucht" D656 (Goethe)  [London Schuber
TTITLE19=t Chorale]
TTITLE20=Marie D658 (Novalis) [M. McLaughlin]
EXTD=
EXTT0=
EXTT1=
EXTT2=
EXTT3=
EXTT4=
EXTT5=
EXTT6=
EXTT7=
EXTT8=
EXTT9=
EXTT10=
EXTT11=
EXTT12=
EXTT13=
EXTT14=
EXTT15=
EXTT16=
EXTT17=
EXTT18=
EXTT19=
EXTT20=
PLAYORDER=
